<mxfile host="Electron" modified="2023-12-17T20:59:05.491Z" agent="Mozilla/5.0 (Windows NT 10.0; Win64; x64) AppleWebKit/537.36 (KHTML, like Gecko) draw.io/22.1.2 Chrome/114.0.5735.289 Electron/25.9.4 Safari/537.36" etag="S_3Og9L8WFnGR5UVgl7P" version="22.1.2" type="device">
  <diagram name="Страница — 1" id="UiNPFTjl_EpFxTG65hHo">
    <mxGraphModel dx="1480" dy="877" grid="1" gridSize="10" guides="1" tooltips="1" connect="1" arrows="1" fold="1" page="1" pageScale="1" pageWidth="827" pageHeight="1169" math="0" shadow="0">
      <root>
        <mxCell id="0" />
        <mxCell id="1" parent="0" />
        <mxCell id="uX3RrPYELe2vvAVmBpQw-1" value="ROLE_UNAUTHORIZED" style="shape=umlActor;verticalLabelPosition=bottom;verticalAlign=top;html=1;outlineConnect=0;" vertex="1" parent="1">
          <mxGeometry x="399" y="140" width="30" height="60" as="geometry" />
        </mxCell>
        <mxCell id="uX3RrPYELe2vvAVmBpQw-2" value="ROLE_USER" style="shape=umlActor;verticalLabelPosition=bottom;verticalAlign=top;html=1;outlineConnect=0;" vertex="1" parent="1">
          <mxGeometry x="399" y="355" width="30" height="60" as="geometry" />
        </mxCell>
        <mxCell id="uX3RrPYELe2vvAVmBpQw-3" value="ROLE_ADMIN" style="shape=umlActor;verticalLabelPosition=bottom;verticalAlign=top;html=1;outlineConnect=0;" vertex="1" parent="1">
          <mxGeometry x="399" y="600" width="30" height="60" as="geometry" />
        </mxCell>
        <mxCell id="uX3RrPYELe2vvAVmBpQw-4" value="" style="shape=flexArrow;endArrow=classic;html=1;rounded=0;" edge="1" parent="1">
          <mxGeometry width="50" height="50" relative="1" as="geometry">
            <mxPoint x="413.17" y="320" as="sourcePoint" />
            <mxPoint x="413" y="250" as="targetPoint" />
          </mxGeometry>
        </mxCell>
        <mxCell id="uX3RrPYELe2vvAVmBpQw-5" value="" style="shape=flexArrow;endArrow=classic;html=1;rounded=0;" edge="1" parent="1">
          <mxGeometry width="50" height="50" relative="1" as="geometry">
            <mxPoint x="413.17" y="560" as="sourcePoint" />
            <mxPoint x="413" y="490" as="targetPoint" />
          </mxGeometry>
        </mxCell>
        <mxCell id="uX3RrPYELe2vvAVmBpQw-6" value="Авторизация" style="ellipse;whiteSpace=wrap;html=1;" vertex="1" parent="1">
          <mxGeometry x="140" y="90" width="110" height="70" as="geometry" />
        </mxCell>
        <mxCell id="uX3RrPYELe2vvAVmBpQw-7" value="Регистрация" style="ellipse;whiteSpace=wrap;html=1;" vertex="1" parent="1">
          <mxGeometry x="230" y="40" width="110" height="70" as="geometry" />
        </mxCell>
        <mxCell id="uX3RrPYELe2vvAVmBpQw-8" value="" style="endArrow=none;html=1;rounded=0;entryX=1;entryY=1;entryDx=0;entryDy=0;" edge="1" parent="1" target="uX3RrPYELe2vvAVmBpQw-7">
          <mxGeometry width="50" height="50" relative="1" as="geometry">
            <mxPoint x="390" y="180" as="sourcePoint" />
            <mxPoint x="440" y="100" as="targetPoint" />
          </mxGeometry>
        </mxCell>
        <mxCell id="uX3RrPYELe2vvAVmBpQw-9" value="" style="endArrow=none;html=1;rounded=0;entryX=1;entryY=0.5;entryDx=0;entryDy=0;" edge="1" parent="1" target="uX3RrPYELe2vvAVmBpQw-6">
          <mxGeometry width="50" height="50" relative="1" as="geometry">
            <mxPoint x="390" y="180" as="sourcePoint" />
            <mxPoint x="510" y="140" as="targetPoint" />
          </mxGeometry>
        </mxCell>
        <mxCell id="uX3RrPYELe2vvAVmBpQw-10" value="Просмотр матчей" style="ellipse;whiteSpace=wrap;html=1;" vertex="1" parent="1">
          <mxGeometry x="440" y="10" width="110" height="70" as="geometry" />
        </mxCell>
        <mxCell id="uX3RrPYELe2vvAVmBpQw-11" value="" style="endArrow=none;html=1;rounded=0;entryX=0.5;entryY=1;entryDx=0;entryDy=0;" edge="1" parent="1" target="uX3RrPYELe2vvAVmBpQw-10">
          <mxGeometry width="50" height="50" relative="1" as="geometry">
            <mxPoint x="430" y="180" as="sourcePoint" />
            <mxPoint x="330" y="140" as="targetPoint" />
          </mxGeometry>
        </mxCell>
        <mxCell id="uX3RrPYELe2vvAVmBpQw-12" value="&lt;font style=&quot;font-size: 11px;&quot;&gt;Просмотр определенного матча&lt;/font&gt;" style="ellipse;whiteSpace=wrap;html=1;" vertex="1" parent="1">
          <mxGeometry x="470" y="250" width="110" height="70" as="geometry" />
        </mxCell>
        <mxCell id="uX3RrPYELe2vvAVmBpQw-14" value="&lt;font style=&quot;font-size: 10px;&quot;&gt;Добавление игрока в избранное&lt;/font&gt;" style="ellipse;whiteSpace=wrap;html=1;" vertex="1" parent="1">
          <mxGeometry x="610" y="150" width="110" height="70" as="geometry" />
        </mxCell>
        <mxCell id="uX3RrPYELe2vvAVmBpQw-15" value="&lt;font style=&quot;font-size: 10px;&quot;&gt;Просмотр информации о команде&lt;/font&gt;" style="ellipse;whiteSpace=wrap;html=1;" vertex="1" parent="1">
          <mxGeometry x="660" y="240" width="110" height="70" as="geometry" />
        </mxCell>
        <mxCell id="uX3RrPYELe2vvAVmBpQw-16" value="&lt;font style=&quot;font-size: 10px;&quot;&gt;Добавление игрока в избранное&lt;/font&gt;" style="ellipse;whiteSpace=wrap;html=1;" vertex="1" parent="1">
          <mxGeometry x="827" y="190" width="110" height="70" as="geometry" />
        </mxCell>
        <mxCell id="uX3RrPYELe2vvAVmBpQw-17" value="" style="endArrow=classic;html=1;rounded=0;entryX=1;entryY=1;entryDx=0;entryDy=0;exitX=0;exitY=0.5;exitDx=0;exitDy=0;" edge="1" parent="1" source="uX3RrPYELe2vvAVmBpQw-15" target="uX3RrPYELe2vvAVmBpQw-12">
          <mxGeometry width="50" height="50" relative="1" as="geometry">
            <mxPoint x="490" y="470" as="sourcePoint" />
            <mxPoint x="540" y="420" as="targetPoint" />
          </mxGeometry>
        </mxCell>
        <mxCell id="uX3RrPYELe2vvAVmBpQw-20" value="расширить" style="edgeLabel;html=1;align=center;verticalAlign=middle;resizable=0;points=[];" vertex="1" connectable="0" parent="uX3RrPYELe2vvAVmBpQw-17">
          <mxGeometry x="-0.0554" y="3" relative="1" as="geometry">
            <mxPoint as="offset" />
          </mxGeometry>
        </mxCell>
        <mxCell id="uX3RrPYELe2vvAVmBpQw-18" value="" style="endArrow=classic;html=1;rounded=0;entryX=1;entryY=0;entryDx=0;entryDy=0;exitX=0;exitY=0.5;exitDx=0;exitDy=0;" edge="1" parent="1" source="uX3RrPYELe2vvAVmBpQw-14" target="uX3RrPYELe2vvAVmBpQw-12">
          <mxGeometry width="50" height="50" relative="1" as="geometry">
            <mxPoint x="696" y="420" as="sourcePoint" />
            <mxPoint x="610" y="365" as="targetPoint" />
          </mxGeometry>
        </mxCell>
        <mxCell id="uX3RrPYELe2vvAVmBpQw-19" value="расширить" style="edgeLabel;html=1;align=center;verticalAlign=middle;resizable=0;points=[];" vertex="1" connectable="0" parent="uX3RrPYELe2vvAVmBpQw-18">
          <mxGeometry x="0.0751" y="-2" relative="1" as="geometry">
            <mxPoint as="offset" />
          </mxGeometry>
        </mxCell>
        <mxCell id="uX3RrPYELe2vvAVmBpQw-22" value="" style="endArrow=classic;html=1;rounded=0;entryX=1;entryY=0.5;entryDx=0;entryDy=0;exitX=0;exitY=1;exitDx=0;exitDy=0;" edge="1" parent="1" source="uX3RrPYELe2vvAVmBpQw-16" target="uX3RrPYELe2vvAVmBpQw-15">
          <mxGeometry width="50" height="50" relative="1" as="geometry">
            <mxPoint x="670" y="465" as="sourcePoint" />
            <mxPoint x="584" y="410" as="targetPoint" />
          </mxGeometry>
        </mxCell>
        <mxCell id="uX3RrPYELe2vvAVmBpQw-23" value="расширить" style="edgeLabel;html=1;align=center;verticalAlign=middle;resizable=0;points=[];" vertex="1" connectable="0" parent="uX3RrPYELe2vvAVmBpQw-22">
          <mxGeometry x="-0.0554" y="3" relative="1" as="geometry">
            <mxPoint as="offset" />
          </mxGeometry>
        </mxCell>
        <mxCell id="uX3RrPYELe2vvAVmBpQw-24" value="" style="endArrow=none;html=1;rounded=0;entryX=0;entryY=0.5;entryDx=0;entryDy=0;" edge="1" parent="1" target="uX3RrPYELe2vvAVmBpQw-12">
          <mxGeometry width="50" height="50" relative="1" as="geometry">
            <mxPoint x="440" y="390" as="sourcePoint" />
            <mxPoint x="540" y="420" as="targetPoint" />
          </mxGeometry>
        </mxCell>
        <mxCell id="uX3RrPYELe2vvAVmBpQw-25" value="Поиск матчей" style="ellipse;whiteSpace=wrap;html=1;" vertex="1" parent="1">
          <mxGeometry x="480" y="330" width="110" height="70" as="geometry" />
        </mxCell>
        <mxCell id="uX3RrPYELe2vvAVmBpQw-26" value="" style="endArrow=none;html=1;rounded=0;exitX=0;exitY=0.5;exitDx=0;exitDy=0;" edge="1" parent="1" source="uX3RrPYELe2vvAVmBpQw-25">
          <mxGeometry width="50" height="50" relative="1" as="geometry">
            <mxPoint x="440" y="500" as="sourcePoint" />
            <mxPoint x="440" y="390" as="targetPoint" />
          </mxGeometry>
        </mxCell>
        <mxCell id="uX3RrPYELe2vvAVmBpQw-27" value="&lt;font style=&quot;font-size: 11px;&quot;&gt;Изменение фото профиля&lt;/font&gt;" style="ellipse;whiteSpace=wrap;html=1;" vertex="1" parent="1">
          <mxGeometry x="20" y="285" width="110" height="70" as="geometry" />
        </mxCell>
        <mxCell id="uX3RrPYELe2vvAVmBpQw-28" value="&lt;font style=&quot;font-size: 11px;&quot;&gt;Просмотр профиля&lt;/font&gt;" style="ellipse;whiteSpace=wrap;html=1;" vertex="1" parent="1">
          <mxGeometry x="250" y="290" width="110" height="70" as="geometry" />
        </mxCell>
        <mxCell id="uX3RrPYELe2vvAVmBpQw-29" value="&lt;font style=&quot;font-size: 11px;&quot;&gt;Выход с аккаунта&lt;/font&gt;" style="ellipse;whiteSpace=wrap;html=1;" vertex="1" parent="1">
          <mxGeometry x="90" y="180" width="110" height="70" as="geometry" />
        </mxCell>
        <mxCell id="uX3RrPYELe2vvAVmBpQw-30" value="" style="endArrow=classic;html=1;rounded=0;entryX=0;entryY=0.5;entryDx=0;entryDy=0;exitX=1;exitY=1;exitDx=0;exitDy=0;" edge="1" parent="1" source="uX3RrPYELe2vvAVmBpQw-29" target="uX3RrPYELe2vvAVmBpQw-28">
          <mxGeometry width="50" height="50" relative="1" as="geometry">
            <mxPoint x="276" y="482.5" as="sourcePoint" />
            <mxPoint x="190" y="427.5" as="targetPoint" />
          </mxGeometry>
        </mxCell>
        <mxCell id="uX3RrPYELe2vvAVmBpQw-31" value="расширить" style="edgeLabel;html=1;align=center;verticalAlign=middle;resizable=0;points=[];" vertex="1" connectable="0" parent="uX3RrPYELe2vvAVmBpQw-30">
          <mxGeometry x="-0.0554" y="3" relative="1" as="geometry">
            <mxPoint as="offset" />
          </mxGeometry>
        </mxCell>
        <mxCell id="uX3RrPYELe2vvAVmBpQw-32" value="" style="endArrow=classic;html=1;rounded=0;entryX=0;entryY=0.5;entryDx=0;entryDy=0;exitX=1;exitY=0.5;exitDx=0;exitDy=0;" edge="1" parent="1" source="uX3RrPYELe2vvAVmBpQw-27" target="uX3RrPYELe2vvAVmBpQw-28">
          <mxGeometry width="50" height="50" relative="1" as="geometry">
            <mxPoint x="160" y="320" as="sourcePoint" />
            <mxPoint x="260" y="375" as="targetPoint" />
          </mxGeometry>
        </mxCell>
        <mxCell id="uX3RrPYELe2vvAVmBpQw-33" value="расширить" style="edgeLabel;html=1;align=center;verticalAlign=middle;resizable=0;points=[];" vertex="1" connectable="0" parent="uX3RrPYELe2vvAVmBpQw-32">
          <mxGeometry x="-0.0554" y="3" relative="1" as="geometry">
            <mxPoint as="offset" />
          </mxGeometry>
        </mxCell>
        <mxCell id="uX3RrPYELe2vvAVmBpQw-34" value="" style="endArrow=none;html=1;rounded=0;exitX=1;exitY=0.5;exitDx=0;exitDy=0;" edge="1" parent="1" source="uX3RrPYELe2vvAVmBpQw-28">
          <mxGeometry width="50" height="50" relative="1" as="geometry">
            <mxPoint x="450" y="400" as="sourcePoint" />
            <mxPoint x="390" y="390" as="targetPoint" />
          </mxGeometry>
        </mxCell>
        <mxCell id="uX3RrPYELe2vvAVmBpQw-35" value="&lt;font style=&quot;font-size: 10px;&quot;&gt;Просмотр уникальной команды&lt;/font&gt;" style="ellipse;whiteSpace=wrap;html=1;" vertex="1" parent="1">
          <mxGeometry y="390" width="120" height="80" as="geometry" />
        </mxCell>
        <mxCell id="uX3RrPYELe2vvAVmBpQw-36" value="&lt;font style=&quot;font-size: 10px;&quot;&gt;Составление уникальной команды&lt;/font&gt;" style="ellipse;whiteSpace=wrap;html=1;" vertex="1" parent="1">
          <mxGeometry x="170" y="370" width="120" height="80" as="geometry" />
        </mxCell>
        <mxCell id="uX3RrPYELe2vvAVmBpQw-37" value="" style="endArrow=none;html=1;rounded=0;entryX=1;entryY=0.5;entryDx=0;entryDy=0;" edge="1" parent="1" target="uX3RrPYELe2vvAVmBpQw-36">
          <mxGeometry width="50" height="50" relative="1" as="geometry">
            <mxPoint x="390" y="390" as="sourcePoint" />
            <mxPoint x="400" y="400" as="targetPoint" />
          </mxGeometry>
        </mxCell>
        <mxCell id="uX3RrPYELe2vvAVmBpQw-41" value="" style="endArrow=classic;html=1;rounded=0;entryX=0;entryY=0.5;entryDx=0;entryDy=0;exitX=1;exitY=0.5;exitDx=0;exitDy=0;" edge="1" parent="1" source="uX3RrPYELe2vvAVmBpQw-35" target="uX3RrPYELe2vvAVmBpQw-36">
          <mxGeometry width="50" height="50" relative="1" as="geometry">
            <mxPoint x="140" y="330" as="sourcePoint" />
            <mxPoint x="260" y="335" as="targetPoint" />
          </mxGeometry>
        </mxCell>
        <mxCell id="uX3RrPYELe2vvAVmBpQw-42" value="расширить" style="edgeLabel;html=1;align=center;verticalAlign=middle;resizable=0;points=[];" vertex="1" connectable="0" parent="uX3RrPYELe2vvAVmBpQw-41">
          <mxGeometry x="-0.0554" y="3" relative="1" as="geometry">
            <mxPoint as="offset" />
          </mxGeometry>
        </mxCell>
        <mxCell id="uX3RrPYELe2vvAVmBpQw-43" value="" style="endArrow=none;html=1;rounded=0;exitX=0;exitY=0.5;exitDx=0;exitDy=0;" edge="1" parent="1" source="uX3RrPYELe2vvAVmBpQw-44">
          <mxGeometry width="50" height="50" relative="1" as="geometry">
            <mxPoint x="590" y="440" as="sourcePoint" />
            <mxPoint x="440" y="390" as="targetPoint" />
          </mxGeometry>
        </mxCell>
        <mxCell id="uX3RrPYELe2vvAVmBpQw-44" value="Просмотр игроков" style="ellipse;whiteSpace=wrap;html=1;" vertex="1" parent="1">
          <mxGeometry x="580" y="390" width="110" height="70" as="geometry" />
        </mxCell>
        <mxCell id="uX3RrPYELe2vvAVmBpQw-47" value="Просмотр команд" style="ellipse;whiteSpace=wrap;html=1;" vertex="1" parent="1">
          <mxGeometry x="490" y="450" width="110" height="70" as="geometry" />
        </mxCell>
        <mxCell id="uX3RrPYELe2vvAVmBpQw-48" value="" style="endArrow=none;html=1;rounded=0;exitX=0;exitY=0;exitDx=0;exitDy=0;" edge="1" parent="1" source="uX3RrPYELe2vvAVmBpQw-47">
          <mxGeometry width="50" height="50" relative="1" as="geometry">
            <mxPoint x="590" y="435" as="sourcePoint" />
            <mxPoint x="440" y="390" as="targetPoint" />
          </mxGeometry>
        </mxCell>
        <mxCell id="uX3RrPYELe2vvAVmBpQw-49" value="Работа с игроками" style="ellipse;whiteSpace=wrap;html=1;" vertex="1" parent="1">
          <mxGeometry x="490" y="610" width="110" height="70" as="geometry" />
        </mxCell>
        <mxCell id="uX3RrPYELe2vvAVmBpQw-50" value="Работа с командами" style="ellipse;whiteSpace=wrap;html=1;" vertex="1" parent="1">
          <mxGeometry x="360" y="710" width="110" height="70" as="geometry" />
        </mxCell>
        <mxCell id="uX3RrPYELe2vvAVmBpQw-51" value="Удалить игрока" style="ellipse;whiteSpace=wrap;html=1;" vertex="1" parent="1">
          <mxGeometry x="700" y="580" width="110" height="70" as="geometry" />
        </mxCell>
        <mxCell id="uX3RrPYELe2vvAVmBpQw-52" value="Изменить игрока" style="ellipse;whiteSpace=wrap;html=1;" vertex="1" parent="1">
          <mxGeometry x="690" y="660" width="110" height="70" as="geometry" />
        </mxCell>
        <mxCell id="uX3RrPYELe2vvAVmBpQw-53" value="Добавить игрока" style="ellipse;whiteSpace=wrap;html=1;" vertex="1" parent="1">
          <mxGeometry x="650" y="740" width="110" height="70" as="geometry" />
        </mxCell>
        <mxCell id="uX3RrPYELe2vvAVmBpQw-54" value="Изменить команду" style="ellipse;whiteSpace=wrap;html=1;" vertex="1" parent="1">
          <mxGeometry x="360" y="860" width="110" height="70" as="geometry" />
        </mxCell>
        <mxCell id="uX3RrPYELe2vvAVmBpQw-55" value="Удалить команду" style="ellipse;whiteSpace=wrap;html=1;" vertex="1" parent="1">
          <mxGeometry x="470" y="820" width="110" height="70" as="geometry" />
        </mxCell>
        <mxCell id="uX3RrPYELe2vvAVmBpQw-56" value="Добавить команду" style="ellipse;whiteSpace=wrap;html=1;" vertex="1" parent="1">
          <mxGeometry x="250" y="820" width="110" height="70" as="geometry" />
        </mxCell>
        <mxCell id="uX3RrPYELe2vvAVmBpQw-57" value="" style="endArrow=classic;html=1;rounded=0;entryX=1;entryY=0.5;entryDx=0;entryDy=0;exitX=0;exitY=0.5;exitDx=0;exitDy=0;" edge="1" parent="1" source="uX3RrPYELe2vvAVmBpQw-52" target="uX3RrPYELe2vvAVmBpQw-49">
          <mxGeometry width="50" height="50" relative="1" as="geometry">
            <mxPoint x="670" y="285" as="sourcePoint" />
            <mxPoint x="574" y="320" as="targetPoint" />
          </mxGeometry>
        </mxCell>
        <mxCell id="uX3RrPYELe2vvAVmBpQw-58" value="расширить" style="edgeLabel;html=1;align=center;verticalAlign=middle;resizable=0;points=[];" vertex="1" connectable="0" parent="uX3RrPYELe2vvAVmBpQw-57">
          <mxGeometry x="-0.0554" y="3" relative="1" as="geometry">
            <mxPoint as="offset" />
          </mxGeometry>
        </mxCell>
        <mxCell id="uX3RrPYELe2vvAVmBpQw-59" value="" style="endArrow=classic;html=1;rounded=0;entryX=1;entryY=0.5;entryDx=0;entryDy=0;exitX=0;exitY=0.5;exitDx=0;exitDy=0;" edge="1" parent="1" source="uX3RrPYELe2vvAVmBpQw-51" target="uX3RrPYELe2vvAVmBpQw-49">
          <mxGeometry width="50" height="50" relative="1" as="geometry">
            <mxPoint x="700" y="705" as="sourcePoint" />
            <mxPoint x="610" y="655" as="targetPoint" />
          </mxGeometry>
        </mxCell>
        <mxCell id="uX3RrPYELe2vvAVmBpQw-60" value="расширить" style="edgeLabel;html=1;align=center;verticalAlign=middle;resizable=0;points=[];" vertex="1" connectable="0" parent="uX3RrPYELe2vvAVmBpQw-59">
          <mxGeometry x="-0.0554" y="3" relative="1" as="geometry">
            <mxPoint as="offset" />
          </mxGeometry>
        </mxCell>
        <mxCell id="uX3RrPYELe2vvAVmBpQw-61" value="" style="endArrow=classic;html=1;rounded=0;entryX=1;entryY=1;entryDx=0;entryDy=0;exitX=0;exitY=0;exitDx=0;exitDy=0;" edge="1" parent="1" source="uX3RrPYELe2vvAVmBpQw-53" target="uX3RrPYELe2vvAVmBpQw-49">
          <mxGeometry width="50" height="50" relative="1" as="geometry">
            <mxPoint x="710" y="625" as="sourcePoint" />
            <mxPoint x="610" y="655" as="targetPoint" />
          </mxGeometry>
        </mxCell>
        <mxCell id="uX3RrPYELe2vvAVmBpQw-62" value="расширить" style="edgeLabel;html=1;align=center;verticalAlign=middle;resizable=0;points=[];" vertex="1" connectable="0" parent="uX3RrPYELe2vvAVmBpQw-61">
          <mxGeometry x="-0.0554" y="3" relative="1" as="geometry">
            <mxPoint x="-30" as="offset" />
          </mxGeometry>
        </mxCell>
        <mxCell id="uX3RrPYELe2vvAVmBpQw-63" value="" style="endArrow=classic;html=1;rounded=0;entryX=1;entryY=1;entryDx=0;entryDy=0;exitX=0;exitY=0;exitDx=0;exitDy=0;" edge="1" parent="1" source="uX3RrPYELe2vvAVmBpQw-55" target="uX3RrPYELe2vvAVmBpQw-50">
          <mxGeometry width="50" height="50" relative="1" as="geometry">
            <mxPoint x="646" y="760" as="sourcePoint" />
            <mxPoint x="564" y="680" as="targetPoint" />
          </mxGeometry>
        </mxCell>
        <mxCell id="uX3RrPYELe2vvAVmBpQw-64" value="расширить" style="edgeLabel;html=1;align=center;verticalAlign=middle;resizable=0;points=[];" vertex="1" connectable="0" parent="uX3RrPYELe2vvAVmBpQw-63">
          <mxGeometry x="-0.0554" y="3" relative="1" as="geometry">
            <mxPoint as="offset" />
          </mxGeometry>
        </mxCell>
        <mxCell id="uX3RrPYELe2vvAVmBpQw-65" value="" style="endArrow=classic;html=1;rounded=0;entryX=0.5;entryY=1;entryDx=0;entryDy=0;exitX=0.5;exitY=0;exitDx=0;exitDy=0;" edge="1" parent="1" source="uX3RrPYELe2vvAVmBpQw-54" target="uX3RrPYELe2vvAVmBpQw-50">
          <mxGeometry width="50" height="50" relative="1" as="geometry">
            <mxPoint x="516" y="840" as="sourcePoint" />
            <mxPoint x="464" y="780" as="targetPoint" />
          </mxGeometry>
        </mxCell>
        <mxCell id="uX3RrPYELe2vvAVmBpQw-66" value="расширить" style="edgeLabel;html=1;align=center;verticalAlign=middle;resizable=0;points=[];" vertex="1" connectable="0" parent="uX3RrPYELe2vvAVmBpQw-65">
          <mxGeometry x="-0.0554" y="3" relative="1" as="geometry">
            <mxPoint as="offset" />
          </mxGeometry>
        </mxCell>
        <mxCell id="uX3RrPYELe2vvAVmBpQw-67" value="" style="endArrow=classic;html=1;rounded=0;entryX=0;entryY=1;entryDx=0;entryDy=0;exitX=1;exitY=0;exitDx=0;exitDy=0;" edge="1" parent="1" source="uX3RrPYELe2vvAVmBpQw-56" target="uX3RrPYELe2vvAVmBpQw-50">
          <mxGeometry width="50" height="50" relative="1" as="geometry">
            <mxPoint x="425" y="870" as="sourcePoint" />
            <mxPoint x="425" y="790" as="targetPoint" />
          </mxGeometry>
        </mxCell>
        <mxCell id="uX3RrPYELe2vvAVmBpQw-68" value="расширить" style="edgeLabel;html=1;align=center;verticalAlign=middle;resizable=0;points=[];" vertex="1" connectable="0" parent="uX3RrPYELe2vvAVmBpQw-67">
          <mxGeometry x="-0.0554" y="3" relative="1" as="geometry">
            <mxPoint as="offset" />
          </mxGeometry>
        </mxCell>
        <mxCell id="uX3RrPYELe2vvAVmBpQw-69" value="" style="endArrow=none;html=1;rounded=0;exitX=0.5;exitY=0;exitDx=0;exitDy=0;" edge="1" parent="1" source="uX3RrPYELe2vvAVmBpQw-50">
          <mxGeometry width="50" height="50" relative="1" as="geometry">
            <mxPoint x="410" y="770" as="sourcePoint" />
            <mxPoint x="415" y="690" as="targetPoint" />
          </mxGeometry>
        </mxCell>
        <mxCell id="uX3RrPYELe2vvAVmBpQw-70" value="" style="endArrow=none;html=1;rounded=0;exitX=0;exitY=0.5;exitDx=0;exitDy=0;" edge="1" parent="1" source="uX3RrPYELe2vvAVmBpQw-49">
          <mxGeometry width="50" height="50" relative="1" as="geometry">
            <mxPoint x="425" y="720" as="sourcePoint" />
            <mxPoint x="440" y="630" as="targetPoint" />
          </mxGeometry>
        </mxCell>
        <mxCell id="uX3RrPYELe2vvAVmBpQw-71" value="Добавление матча" style="ellipse;whiteSpace=wrap;html=1;" vertex="1" parent="1">
          <mxGeometry x="220" y="550" width="110" height="70" as="geometry" />
        </mxCell>
        <mxCell id="uX3RrPYELe2vvAVmBpQw-72" value="Добавление заявки команды на матч" style="ellipse;whiteSpace=wrap;html=1;" vertex="1" parent="1">
          <mxGeometry x="220" y="650" width="110" height="70" as="geometry" />
        </mxCell>
        <mxCell id="uX3RrPYELe2vvAVmBpQw-73" value="" style="endArrow=none;html=1;rounded=0;entryX=1;entryY=0.5;entryDx=0;entryDy=0;" edge="1" parent="1" source="uX3RrPYELe2vvAVmBpQw-3" target="uX3RrPYELe2vvAVmBpQw-72">
          <mxGeometry width="50" height="50" relative="1" as="geometry">
            <mxPoint x="500" y="655" as="sourcePoint" />
            <mxPoint x="450" y="640" as="targetPoint" />
          </mxGeometry>
        </mxCell>
        <mxCell id="uX3RrPYELe2vvAVmBpQw-74" value="" style="endArrow=none;html=1;rounded=0;exitX=1;exitY=0.5;exitDx=0;exitDy=0;" edge="1" parent="1" source="uX3RrPYELe2vvAVmBpQw-71">
          <mxGeometry width="50" height="50" relative="1" as="geometry">
            <mxPoint x="500" y="655" as="sourcePoint" />
            <mxPoint x="400" y="630" as="targetPoint" />
          </mxGeometry>
        </mxCell>
      </root>
    </mxGraphModel>
  </diagram>
</mxfile>
